<?xml version="1.0" encoding="utf-8"?>
<!-- Generator: Adobe Illustrator 21.0.0, SVG Export Plug-In . SVG Version: 6.00 Build 0)  -->
<svg version="1.1" id="Capa_1" xmlns="http://www.w3.org/2000/svg" xmlns:xlink="http://www.w3.org/1999/xlink" x="0px" y="0px"
	 viewBox="0 0 56 56" style="enable-background:new 0 0 56 56;" xml:space="preserve">
<style type="text/css">
	.st0{fill:#E9E9E0;}
	.st1{fill:#D9D7CA;}
	.st2{fill:#4097D3;}
	.st3{fill:#C8BDB8;}
	.st4{fill:#FFFFFF;}
</style>
<g>
	<path class="st0" d="M37,0H8C7.2,0,6.5,0.7,6.5,1.9V55c0,0.3,0.7,1,1.5,1H48c0.8,0,1.5-0.7,1.5-1V13c0-0.7-0.1-0.9-0.3-1.1
		L37.6,0.3C37.4,0.1,37.2,0,37,0z"/>
	<polygon class="st1" points="37.5,0.2 37.5,12 49.3,12 	"/>
	<path class="st2" d="M48,56H8c-0.8,0-1.5-0.7-1.5-1.5V39h43v15.5C49.5,55.3,48.8,56,48,56z"/>
	<path class="st3" d="M35.7,15c-0.6-0.8-1.3-1.5-2.3-2.4c-3.9-3.1-4.8-6.3-4.9-6.7V5c0-0.6-0.4-1-1-1s-1,0.4-1,1v1v8.4v9.1h-3.7
		c-3.9,0-6.3,2-6.3,5.1c0,3.5,2.2,5.7,5.7,5.7c3.5,0,6.3-2.8,6.3-6.3V16.5l0.3,0.2c0.3,0.3,0.9,0.7,1.5,1.2c2.3,1.7,6.2,4.6,5.2,7.8
		c0,0.1,0,0.2,0,0.3c0,0.4,0.3,0.8,0.7,1c0.1,0,0.2,0,0.3,0c0.4,0,0.8-0.3,1-0.7C39.1,20.9,37,16.9,35.7,15z M26.5,27.9
		c0,2.4-1.9,4.3-4.3,4.3c-2.4,0-3.7-1.4-3.7-3.7c0-2.6,2.3-3.1,4.3-3.1h3.7V27.9z M31.5,16.3c-0.6-0.4-1.1-0.8-1.4-1.1l-1.6-1.3
		v-3.5c0.8,1.2,2,2.5,3.6,3.8c0.9,0.7,1.5,1.3,1.9,1.9c0.7,1,1.4,2.3,1.8,4C34.5,18.5,32.7,17.2,31.5,16.3z"/>
	<g>
		<path class="st4" d="M21.6,53.1h-1.4l-1-2.8h-4.4l-1,2.8h-1.4l3.7-10.2h1.8L21.6,53.1z M18.8,49.1l-1.8-5l-1.8,5H18.8z"/>
		<path class="st4" d="M26.7,53.1h-4v-1h1.3v-8.1h-1.3v-1h4v1h-1.3V52h1.3V53.1z"/>
		<path class="st4" d="M35.6,44.1h-5.1V47h4.4v1.2h-4.4v4.9h-1.4V42.9h6.5V44.1z"/>
		<path class="st4" d="M43.6,44.1h-5.1V47h4.4v1.2h-4.4v4.9h-1.4V42.9h6.5V44.1z"/>
	</g>
</g>
</svg>
