<svg xmlns="http://www.w3.org/2000/svg" viewBox="0 0 56 56">
    <path d="M37 0H8c-.8 0-1.5.7-1.5 1.9V55c0 .3.7 1 1.5 1h40c.8 0 1.5-.7 1.5-1V13c0-.7-.1-.9-.3-1.1L37.6.3c-.2-.2-.4-.3-.6-.3z" fill="#e9e9e0"/>
    <path fill="#d9d7ca" d="M37.5.2V12h11.8z"/>
    <path d="M48 56H8c-.8 0-1.5-.7-1.5-1.5V39h43v15.5c0 .8-.7 1.5-1.5 1.5z" fill="#3d3d3d"/>
    <path d="M36 21.2l-16 9.7v-3.2L32.9 20 20 12.2V9.1l16 9.6v2.5z" fill="#c8bdb8"/>
    <path d="M22.4 53.1h-6.7V42.9h6.7v1.2H17v2.8h5.4v1.2H17v3.8h5.4v1.2zm9.9-10.2l-3.5 5 3.5 5.1h-1.6L28 48.9l-2.8 4.2h-1.5l3.5-5.1-3.5-5.1h1.6L28 47l2.8-4.1h1.5zm8.6 10.2h-6.7V42.9h6.7v1.2h-5.4v2.8h5.4v1.2h-5.4v3.8h5.4v1.2z" fill="#fff"/>
</svg>
