<?xml version="1.0" encoding="utf-8"?>
<!-- Generator: Adobe Illustrator 21.0.0, SVG Export Plug-In . SVG Version: 6.00 Build 0)  -->
<svg version="1.1" id="Capa_1" xmlns="http://www.w3.org/2000/svg" xmlns:xlink="http://www.w3.org/1999/xlink" x="0px" y="0px"
	 viewBox="0 0 56 56" style="enable-background:new 0 0 56 56;" xml:space="preserve">
<style type="text/css">
	.st0{fill:#E9E9E0;}
	.st1{fill:#D9D7CA;}
	.st2{fill:#3D3D3D;}
	.st3{fill:#C8BDB8;}
	.st4{fill:#FFFFFF;}
</style>
<g>
	<path class="st0" d="M37,0H8C7.2,0,6.5,0.7,6.5,1.9V55c0,0.3,0.7,1,1.5,1H48c0.8,0,1.5-0.7,1.5-1V13c0-0.7-0.1-0.9-0.3-1.1
		L37.6,0.3C37.4,0.1,37.2,0,37,0z"/>
	<polygon class="st1" points="37.5,0.2 37.5,12 49.3,12 	"/>
	<path class="st2" d="M48,56H8c-0.8,0-1.5-0.7-1.5-1.5V39h43v15.5C49.5,55.3,48.8,56,48,56z"/>
	<g>
		<path class="st3" d="M36,21.2L20,30.9v-3.2l12.9-7.7L20,12.2V9.1L36,18.7V21.2z"/>
	</g>
	<g>
		<path class="st4" d="M22.4,53.1h-6.7V42.9h6.7v1.2h-5.4v2.8h5.4v1.2h-5.4v3.8h5.4V53.1z"/>
		<path class="st4" d="M32.3,42.9l-3.5,5l3.5,5.1h-1.6L28,48.9l-2.8,4.2h-1.5l3.5-5.1l-3.5-5.1h1.6l2.7,4.1l2.8-4.1H32.3z"/>
		<path class="st4" d="M40.9,53.1h-6.7V42.9h6.7v1.2h-5.4v2.8h5.4v1.2h-5.4v3.8h5.4V53.1z"/>
	</g>
</g>
</svg>
