<svg xmlns="http://www.w3.org/2000/svg" viewBox="0 0 56 56">
    <path d="M37 0H8c-.8 0-1.5.7-1.5 1.9V55c0 .3.7 1 1.5 1h40c.8 0 1.5-.7 1.5-1V13c0-.7-.1-.9-.3-1.1L37.6.3c-.2-.2-.4-.3-.6-.3z" fill="#e9e9e0"/>
    <path fill="#d9d7ca" d="M37.5.2V12h11.8z"/>
    <path d="M48 56H8c-.8 0-1.5-.7-1.5-1.5V39h43v15.5c0 .8-.7 1.5-1.5 1.5z" fill="#7ce08e"/>
    <path d="M35.7 15c-.6-.8-1.3-1.5-2.3-2.4-3.9-3.1-4.8-6.3-4.9-6.7V5c0-.6-.4-1-1-1s-1 .4-1 1v18.5h-3.7c-3.9 0-6.3 2-6.3 5.1 0 3.5 2.2 5.7 5.7 5.7s6.3-2.8 6.3-6.3V16.5l.3.2c.3.3.9.7 1.5 1.2 2.3 1.7 6.2 4.6 5.2 7.8v.3c0 .4.3.8.7 1h.3c.4 0 .8-.3 1-.7 1.6-5.4-.5-9.4-1.8-11.3zm-9.2 12.9c0 2.4-1.9 4.3-4.3 4.3s-3.7-1.4-3.7-3.7c0-2.6 2.3-3.1 4.3-3.1h3.7v2.5zm5-11.6c-.6-.4-1.1-.8-1.4-1.1l-1.6-1.3v-3.5c.8 1.2 2 2.5 3.6 3.8.9.7 1.5 1.3 1.9 1.9.7 1 1.4 2.3 1.8 4-1.3-1.6-3.1-2.9-4.3-3.8z" fill="#c8bdb8"/>
    <path d="M18.3 44.1h-5.1V47h4.4v1.2h-4.4v4.9h-1.4V42.9h6.5v1.2zm8 9h-6.4V42.9h1.4v9h5.1v1.2zm9.3 0h-1.4l-1-2.8h-4.4l-1 2.8h-1.4l3.7-10.2h1.8l3.7 10.2zm-2.8-4l-1.8-5-1.8 5h3.6zM45 52.3c-.3.1-.5.2-.7.3-.2.1-.5.2-.8.3-.3.1-.6.2-.9.2-.3.1-.7.1-1.1.1-.7 0-1.4-.1-2-.3-.6-.2-1.1-.5-1.6-1-.4-.4-.8-1-1-1.7-.2-.7-.4-1.4-.4-2.3 0-.8.1-1.6.4-2.2s.6-1.2 1-1.7c.4-.4 1-.8 1.6-1 .6-.2 1.3-.3 2-.3.5 0 1.1.1 1.6.2s1.1.4 1.8.7v1.6h-.1c-.6-.5-1.1-.8-1.7-1s-1.1-.3-1.8-.3c-.5 0-1 .1-1.4.2-.4.2-.8.4-1.1.8-.3.3-.6.8-.7 1.3 0 .5-.1 1.1-.1 1.8s.1 1.3.3 1.8c.2.5.4.9.7 1.3.3.3.7.6 1.1.7.4.2.9.2 1.3.2.7 0 1.3-.1 1.8-.3s1.1-.6 1.6-1h.2v1.6z" fill="#fff"/>
</svg>
