<svg xmlns="http://www.w3.org/2000/svg" viewBox="0 0 512 512">
    <path d="M0 167.724v264.828c0 15.007 11.476 26.483 26.483 26.483h459.034c15.007 0 26.483-11.476 26.483-26.483V167.724c0-15.007-11.476-26.483-26.483-26.483H26.483C11.476 141.241 0 153.6 0 167.724" fill="#fbc176"/>
    <path d="M467.862 141.241c0-19.421-15.89-35.31-35.31-35.31H291.31l-44.138-52.966H52.966c-15.007 0-26.483 12.359-26.483 26.483v61.793h441.379z" fill="#c39a6e"/>
    <path d="M158.897 203.034H52.966c-5.297 0-8.828-3.531-8.828-8.828s3.531-8.828 8.828-8.828h105.931c5.297 0 8.828 3.531 8.828 8.828s-3.532 8.828-8.828 8.828m0 35.311H52.966c-5.297 0-8.828-3.531-8.828-8.828s3.531-8.828 8.828-8.828h105.931c5.297 0 8.828 3.531 8.828 8.828s-3.532 8.828-8.828 8.828" fill="#fff"/>
</svg>
