<svg id="Capa_1" xmlns="http://www.w3.org/2000/svg" viewBox="0 0 56 56">
    <path d="M37 0H8c-.8 0-1.5.7-1.5 1.9V55c0 .3.7 1 1.5 1h40c.8 0 1.5-.7 1.5-1V13c0-.7-.1-.9-.3-1.1L37.6.3c-.2-.2-.4-.3-.6-.3z" fill="#e9e9e0" class="file-background"/>
    <path fill="#fb9200" d="M48 56H8c-.8 0-1.5-.7-1.5-1.5V39h43v15.5c0 .8-.7 1.5-1.5 1.5z"/>
    <path fill="#d9d7ca" class="file-corner" d="M37.5.2V12h11.8z"/>
    <path fill="#ffffff" d="M17.9 51.5l-1.6-3.7c-.2-.5-.4-.9-.5-1.3-.1-.4-.3-.8-.4-1.3 0 .2.1.5.1.7 0 .3.1.5.1.8 0 .3 0 .5.1.8v5.6h-1.9V42.9H16l2 4.7c.2.5.4.9.5 1.3l.3 1.2c.1-.4.1-.8.3-1.2.1-.4.3-.9.5-1.3l2-4.7h2.2V53H22v-5.6c0-.2 0-.5.1-.8 0-.3.1-.5.1-.8s.1-.5.1-.7c-.1.5-.2.9-.4 1.3-.1.4-.3.8-.5 1.3l-1.6 3.7h-1.9zm10 1.5h-2V42.9h2V53zm2.2-5.4l4.3 5.4h-2.2l-3.7-4.7V47l3.7-4.2h2.2l-4.3 4.8zm11.3-4.7h2.1L39.9 53h-2l-3.5-10.1h2.1l1.7 5.4.8 2.7.8-2.7 1.6-5.4z"/>
    <path fill="#fb9200" d="M36.7 29.2H19.3L26.5 11h3z"/>
    <path fill="#ff671b" d="M16.8 28.6h22.3v2.6H16.8z"/>
    <path fill="#ffffff" d="M33.8 21.8H22.2l-1.4 3.6h14.4l-1.4-3.6zm-2.9-7.3h-5.7L23.7 18h8.5l-1.3-3.5z"/>
</svg>
