<?xml version="1.0" encoding="utf-8"?>
<!-- Generator: Adobe Illustrator 21.0.0, SVG Export Plug-In . SVG Version: 6.00 Build 0)  -->
<svg version="1.1" id="Capa_1" xmlns="http://www.w3.org/2000/svg" xmlns:xlink="http://www.w3.org/1999/xlink" x="0px" y="0px"
	 viewBox="0 0 56 56" style="enable-background:new 0 0 56 56;" xml:space="preserve">
<style type="text/css">
	.st0{fill:#E9E9E0;}
	.st1{fill:#FB9200;}
	.st2{fill:#D9D7CA;}
	.st3{fill:#FFFFFF;}
	.st4{fill:#FF671B;}
</style>
<g>
	<path class="st0" d="M37,0H8C7.2,0,6.5,0.7,6.5,1.9V55c0,0.3,0.7,1,1.5,1H48c0.8,0,1.5-0.7,1.5-1V13c0-0.7-0.1-0.9-0.3-1.1
		L37.6,0.3C37.4,0.1,37.2,0,37,0z"/>
	<path class="st1" d="M48,56H8c-0.8,0-1.5-0.7-1.5-1.5V39h43v15.5C49.5,55.3,48.8,56,48,56z"/>
	<polygon class="st2" points="37.5,0.2 37.5,12 49.3,12 	"/>
	<g>
		<path class="st3" d="M17.9,51.5l-1.6-3.7c-0.2-0.5-0.4-0.9-0.5-1.3c-0.1-0.4-0.3-0.8-0.4-1.3h0c0,0.2,0.1,0.5,0.1,0.7
			c0,0.3,0.1,0.5,0.1,0.8c0,0.3,0,0.5,0.1,0.8c0,0.2,0,0.5,0,0.6v5h-1.9V42.9H16l2,4.7c0.2,0.5,0.4,0.9,0.5,1.3
			c0.1,0.4,0.2,0.8,0.3,1.2h0c0.1-0.4,0.1-0.8,0.3-1.2c0.1-0.4,0.3-0.9,0.5-1.3l2-4.7h2.2V53H22v-5c0-0.2,0-0.4,0-0.6
			c0-0.2,0-0.5,0.1-0.8c0-0.3,0.1-0.5,0.1-0.8s0.1-0.5,0.1-0.7h0c-0.1,0.5-0.2,0.9-0.4,1.3c-0.1,0.4-0.3,0.8-0.5,1.3l-1.6,3.7H17.9z
			"/>
		<path class="st3" d="M27.9,53h-2V42.9h2V53z M30.1,47.6l4.3,5.4h-2.2l-3.7-4.7V47l3.7-4.2h2.2L30.1,47.6z"/>
		<path class="st3" d="M41.4,42.9h2.1L39.9,53h-2l-3.5-10.1h2.1l1.7,5.4l0.8,2.7h0l0.8-2.7L41.4,42.9z"/>
	</g>
	<path class="st3" d="M20.2,50"/>
	<g>
		<polygon class="st1" points="36.7,29.2 19.3,29.2 26.5,11 29.5,11 		"/>
		<rect x="16.8" y="28.6" class="st4" width="22.3" height="2.6"/>
		<path class="st3" d="M33.8,21.8H22.2l-1.4,3.6h14.4L33.8,21.8z M30.9,14.5h-5.7L23.7,18h8.5L30.9,14.5z"/>
	</g>
</g>
</svg>
