<?xml version="1.0" encoding="utf-8"?>
<!-- Generator: Adobe Illustrator 21.0.0, SVG Export Plug-In . SVG Version: 6.00 Build 0)  -->
<svg version="1.1" id="Capa_1" xmlns="http://www.w3.org/2000/svg" xmlns:xlink="http://www.w3.org/1999/xlink" x="0px" y="0px"
	 viewBox="0 0 56 56" style="enable-background:new 0 0 56 56;" xml:space="preserve">
<style type="text/css">
	.st0{fill:#E9E9E0;}
	.st1{fill:#D9D7CA;}
	.st2{fill:#E2D96D;}
	.st3{fill:#C8BDB8;}
	.st4{fill:#FFFFFF;}
</style>
<g>
	<path class="st0" d="M37,0H8C7.2,0,6.5,0.7,6.5,1.9V55c0,0.3,0.7,1,1.5,1H48c0.8,0,1.5-0.7,1.5-1V13c0-0.7-0.1-0.9-0.3-1.1
		L37.6,0.3C37.4,0.1,37.2,0,37,0z"/>
	<polygon class="st1" points="37.5,0.2 37.5,12 49.3,12 	"/>
	<path class="st2" d="M48,56H8c-0.8,0-1.5-0.7-1.5-1.5V39h43v15.5C49.5,55.3,48.8,56,48,56z"/>
	<path class="st3" d="M35.7,15c-0.6-0.8-1.3-1.5-2.3-2.4c-3.9-3.1-4.8-6.3-4.9-6.7V5c0-0.6-0.4-1-1-1s-1,0.4-1,1v1v8.4v9.1h-3.7
		c-3.9,0-6.3,2-6.3,5.1c0,3.5,2.2,5.7,5.7,5.7c3.5,0,6.3-2.8,6.3-6.3V16.5l0.3,0.2c0.3,0.3,0.9,0.7,1.5,1.2c2.3,1.7,6.2,4.6,5.2,7.8
		c0,0.1,0,0.2,0,0.3c0,0.4,0.3,0.8,0.7,1c0.1,0,0.2,0,0.3,0c0.4,0,0.8-0.3,1-0.7C39.1,20.9,37,16.9,35.7,15z M26.5,27.9
		c0,2.4-1.9,4.3-4.3,4.3c-2.4,0-3.7-1.4-3.7-3.7c0-2.6,2.3-3.1,4.3-3.1h3.7V27.9z M31.5,16.3c-0.6-0.4-1.1-0.8-1.4-1.1l-1.6-1.3
		v-3.5c0.8,1.2,2,2.5,3.6,3.8c0.9,0.7,1.5,1.3,1.9,1.9c0.7,1,1.4,2.3,1.8,4C34.5,18.5,32.7,17.2,31.5,16.3z"/>
	<g>
		<path class="st4" d="M20.6,44c0.4,0.5,0.7,1,1,1.7s0.3,1.4,0.3,2.2s-0.1,1.6-0.3,2.3c-0.2,0.7-0.5,1.2-0.9,1.7
			c-0.4,0.5-0.9,0.8-1.5,1c-0.6,0.2-1.2,0.3-2,0.3c-0.7,0-1.4-0.1-2-0.4c-0.6-0.2-1.1-0.6-1.5-1s-0.7-1-0.9-1.7
			c-0.2-0.7-0.3-1.4-0.3-2.2c0-0.8,0.1-1.6,0.3-2.2c0.2-0.7,0.5-1.2,1-1.7c0.4-0.4,0.9-0.8,1.5-1c0.6-0.2,1.2-0.4,1.9-0.4
			c0.7,0,1.4,0.1,2,0.4C19.7,43.2,20.2,43.5,20.6,44z M20.5,47.9c0-1.3-0.3-2.3-0.9-3.1c-0.6-0.7-1.4-1.1-2.4-1.1
			c-1,0-1.8,0.4-2.4,1.1c-0.6,0.7-0.9,1.7-0.9,3.1c0,1.3,0.3,2.4,0.9,3.1c0.6,0.7,1.4,1.1,2.4,1.1s1.8-0.4,2.4-1.1
			C20.2,50.3,20.5,49.2,20.5,47.9z"/>
		<path class="st4" d="M32.5,52.2c-0.6,0.3-1.2,0.5-1.8,0.7c-0.7,0.2-1.3,0.3-1.9,0.3c-0.8,0-1.5-0.1-2.2-0.3s-1.2-0.5-1.7-1
			c-0.5-0.4-0.8-1-1.1-1.7c-0.3-0.7-0.4-1.4-0.4-2.3c0-1.6,0.5-2.9,1.4-3.9c1-0.9,2.3-1.4,3.9-1.4c0.6,0,1.2,0.1,1.8,0.2
			c0.6,0.1,1.3,0.4,2,0.7v1.6h-0.1c-0.1-0.1-0.3-0.3-0.6-0.4s-0.5-0.3-0.8-0.4c-0.3-0.1-0.7-0.3-1.1-0.4c-0.4-0.1-0.9-0.1-1.4-0.1
			c-1.1,0-2,0.4-2.7,1.1c-0.7,0.7-1,1.7-1,3c0,1.3,0.3,2.3,1,3.1c0.7,0.7,1.6,1.1,2.8,1.1c0.4,0,0.9,0,1.3-0.1
			c0.4-0.1,0.8-0.2,1.1-0.3v-2.5h-2.7v-1.2h4.1V52.2z"/>
		<path class="st4" d="M43.4,52.2c-0.6,0.3-1.2,0.5-1.8,0.7c-0.7,0.2-1.3,0.3-1.9,0.3c-0.8,0-1.5-0.1-2.2-0.3s-1.2-0.5-1.7-1
			c-0.5-0.4-0.8-1-1.1-1.7c-0.3-0.7-0.4-1.4-0.4-2.3c0-1.6,0.5-2.9,1.4-3.9c1-0.9,2.3-1.4,3.9-1.4c0.6,0,1.2,0.1,1.8,0.2
			c0.6,0.1,1.3,0.4,2,0.7v1.6h-0.1c-0.1-0.1-0.3-0.3-0.6-0.4s-0.5-0.3-0.8-0.4c-0.3-0.1-0.7-0.3-1.1-0.4c-0.4-0.1-0.9-0.1-1.4-0.1
			c-1.1,0-2,0.4-2.7,1.1c-0.7,0.7-1,1.7-1,3c0,1.3,0.3,2.3,1,3.1c0.7,0.7,1.6,1.1,2.8,1.1c0.4,0,0.9,0,1.3-0.1
			c0.4-0.1,0.8-0.2,1.1-0.3v-2.5h-2.7v-1.2h4.1V52.2z"/>
	</g>
</g>
</svg>
