<svg xmlns="http://www.w3.org/2000/svg" viewBox="0 0 56 56">
    <path d="M37 0H8c-.8 0-1.5.7-1.5 1.9V55c0 .3.7 1 1.5 1h40c.8 0 1.5-.7 1.5-1V13c0-.7-.1-.9-.3-1.1L37.6.3c-.2-.2-.4-.3-.6-.3z" fill="#e9e9e0"/>
    <path fill="#d9d7ca" d="M37.5.2V12h11.8z"/>
    <path d="M48 56H8c-.8 0-1.5-.7-1.5-1.5V39h43v15.5c0 .8-.7 1.5-1.5 1.5z" fill="#e2d96d"/>
    <path d="M35.7 15c-.6-.8-1.3-1.5-2.3-2.4-3.9-3.1-4.8-6.3-4.9-6.7V5c0-.6-.4-1-1-1s-1 .4-1 1v18.5h-3.7c-3.9 0-6.3 2-6.3 5.1 0 3.5 2.2 5.7 5.7 5.7s6.3-2.8 6.3-6.3V16.5l.3.2c.3.3.9.7 1.5 1.2 2.3 1.7 6.2 4.6 5.2 7.8v.3c0 .4.3.8.7 1h.3c.4 0 .8-.3 1-.7 1.6-5.4-.5-9.4-1.8-11.3zm-9.2 12.9c0 2.4-1.9 4.3-4.3 4.3s-3.7-1.4-3.7-3.7c0-2.6 2.3-3.1 4.3-3.1h3.7v2.5zm5-11.6c-.6-.4-1.1-.8-1.4-1.1l-1.6-1.3v-3.5c.8 1.2 2 2.5 3.6 3.8.9.7 1.5 1.3 1.9 1.9.7 1 1.4 2.3 1.8 4-1.3-1.6-3.1-2.9-4.3-3.8z" fill="#c8bdb8"/>
    <path d="M20.6 44c.4.5.7 1 1 1.7s.3 1.4.3 2.2-.1 1.6-.3 2.3c-.2.7-.5 1.2-.9 1.7s-.9.8-1.5 1c-.6.2-1.2.3-2 .3-.7 0-1.4-.1-2-.4-.6-.2-1.1-.6-1.5-1s-.7-1-.9-1.7c-.2-.7-.3-1.4-.3-2.2 0-.8.1-1.6.3-2.2.2-.7.5-1.2 1-1.7.4-.4.9-.8 1.5-1 .6-.2 1.2-.4 1.9-.4s1.4.1 2 .4c.5.2 1 .5 1.4 1zm-.1 3.9c0-1.3-.3-2.3-.9-3.1-.6-.7-1.4-1.1-2.4-1.1s-1.8.4-2.4 1.1c-.6.7-.9 1.7-.9 3.1 0 1.3.3 2.4.9 3.1.6.7 1.4 1.1 2.4 1.1s1.8-.4 2.4-1.1c.6-.7.9-1.8.9-3.1zm12 4.3c-.6.3-1.2.5-1.8.7-.7.2-1.3.3-1.9.3-.8 0-1.5-.1-2.2-.3s-1.2-.5-1.7-1c-.5-.4-.8-1-1.1-1.7-.3-.7-.4-1.4-.4-2.3 0-1.6.5-2.9 1.4-3.9 1-.9 2.3-1.4 3.9-1.4.6 0 1.2.1 1.8.2.6.1 1.3.4 2 .7v1.6h-.1c-.1-.1-.3-.3-.6-.4s-.5-.3-.8-.4c-.3-.1-.7-.3-1.1-.4-.4-.1-.9-.1-1.4-.1-1.1 0-2 .4-2.7 1.1-.7.7-1 1.7-1 3s.3 2.3 1 3.1c.7.7 1.6 1.1 2.8 1.1.4 0 .9 0 1.3-.1s.8-.2 1.1-.3v-2.5h-2.7V48h4.1v4.2zm10.9 0c-.6.3-1.2.5-1.8.7-.7.2-1.3.3-1.9.3-.8 0-1.5-.1-2.2-.3s-1.2-.5-1.7-1c-.5-.4-.8-1-1.1-1.7-.3-.7-.4-1.4-.4-2.3 0-1.6.5-2.9 1.4-3.9 1-.9 2.3-1.4 3.9-1.4.6 0 1.2.1 1.8.2.6.1 1.3.4 2 .7v1.6h-.1c-.1-.1-.3-.3-.6-.4s-.5-.3-.8-.4c-.3-.1-.7-.3-1.1-.4-.4-.1-.9-.1-1.4-.1-1.1 0-2 .4-2.7 1.1-.7.7-1 1.7-1 3s.3 2.3 1 3.1c.7.7 1.6 1.1 2.8 1.1.4 0 .9 0 1.3-.1s.8-.2 1.1-.3v-2.5h-2.7V48h4.1v4.2z" fill="#fff"/>
</svg>
